<?xml version="1.0" encoding="UTF-8" standalone="no"?>
<!-- Created with Inkscape (http://www.inkscape.org/) -->

<svg
   xmlns:dc="http://purl.org/dc/elements/1.1/"
   xmlns:cc="http://creativecommons.org/ns#"
   xmlns:rdf="http://www.w3.org/1999/02/22-rdf-syntax-ns#"
   xmlns:svg="http://www.w3.org/2000/svg"
   xmlns="http://www.w3.org/2000/svg"
   xmlns:sodipodi="http://sodipodi.sourceforge.net/DTD/sodipodi-0.dtd"
   xmlns:inkscape="http://www.inkscape.org/namespaces/inkscape"
   width="744.09448819"
   height="1052.3622047"
   id="svg2"
   version="1.1"
   inkscape:version="0.48.5 r10040"
   sodipodi:docname="towerrush-logo.svg">
  <defs
     id="defs4" />
  <sodipodi:namedview
     id="base"
     pagecolor="#ffffff"
     bordercolor="#666666"
     borderopacity="1.0"
     inkscape:pageopacity="0.0"
     inkscape:pageshadow="2"
     inkscape:zoom="0.35"
     inkscape:cx="375"
     inkscape:cy="520"
     inkscape:document-units="px"
     inkscape:current-layer="layer1"
     showgrid="false"
     inkscape:window-width="637"
     inkscape:window-height="620"
     inkscape:window-x="180"
     inkscape:window-y="157"
     inkscape:window-maximized="0" />
  <metadata
     id="metadata7">
    <rdf:RDF>
      <cc:Work
         rdf:about="">
        <dc:format>image/svg+xml</dc:format>
        <dc:type
           rdf:resource="http://purl.org/dc/dcmitype/StillImage" />
        <dc:title></dc:title>
      </cc:Work>
    </rdf:RDF>
  </metadata>
  <g
     inkscape:label="Layer 1"
     inkscape:groupmode="layer"
     id="layer1">
    <path
       style="fill:#000000"
       d="m 448.34891,978.2409 c -4.9428,-2.04488 -43.49661,-18.67345 -85.67514,-36.9525 -68.86097,-29.84252 -76.7672,-32.92665 -77.46195,-30.21683 -0.63773,2.48756 -4.79588,3.97844 -23.66539,8.48514 -12.59043,3.00703 -23.29616,5.46733 -23.79051,5.46733 -0.49434,0 -0.89879,-21.12388 -0.89879,-46.94198 l 0,-46.94195 23.82783,10.25413 23.82782,10.25415 0.25597,11.09884 0.25595,11.09885 86.15557,36.91409 86.15554,36.91411 0,17.1422 0,17.1422 -8.9869,-3.71778 z m 6.05557,-88.97978 c -2.01091,1.95512 -5.66003,3.23065 -9.9746,3.48657 -7.90508,0.46889 -5.69938,1.31896 -79.06553,-30.47128 l -52.42909,-22.718 -15.31764,3.88689 c -8.42467,2.13778 -15.8364,3.88688 -16.47046,3.88688 -2.44071,0 -1.10312,-67.53166 1.41107,-71.24295 3.05626,-4.51148 7.87712,-5.72556 14.98432,-3.77366 9.13462,2.50871 130.76099,55.36319 140.4979,61.05537 14.15825,8.27688 17.30899,14.22399 18.50335,34.92571 0.76821,13.31504 0.22193,18.66878 -2.13932,20.96447 z M 370.9942,830.46386 c -26.39861,-11.40942 -49.0456,-20.92939 -50.32665,-21.15547 -1.28103,-0.2261 -2.32917,0.90795 -2.32917,2.52009 0,2.29957 10.43571,7.43695 48.43083,23.84194 26.63693,11.50094 49.28393,21.09577 50.32665,21.32186 1.0427,0.22609 1.89582,-0.98283 1.89582,-2.68647 0,-2.51431 -9.03743,-7.00351 -47.99748,-23.84195 z m 85.0602,-32.45984 c -0.70478,0 -30.40286,-9.45959 -65.99574,-21.0213 -35.59288,-11.56171 -66.17409,-21.30956 -67.95827,-21.66186 -1.78415,-0.35231 -11.98789,1.62175 -22.67503,4.3868 l -19.4311,5.02737 0,-25.36724 c 0,-19.96104 0.63844,-25.17165 2.99564,-24.44958 1.6476,0.50469 25.10341,8.48139 52.12404,17.72598 27.02061,9.24459 50.71917,17.2985 52.66348,17.89756 2.76466,0.85182 -32.21728,-22.06657 -52.30063,-34.26473 -3.43285,-2.08503 -3.16624,-2.09261 5.80822,-0.16493 5.17342,1.11122 17.87565,4.21072 28.22715,6.88777 10.35149,2.67705 19.20951,4.66739 19.68447,4.42298 0.47499,-0.2444 -17.40849,-9.83468 -39.74102,-21.31174 L 308.851,685.24375 295.56779,688.5961 c -7.30577,1.84379 -13.79853,3.35235 -14.42835,3.35235 -0.62986,0 -1.14518,-30.2956 -1.14518,-67.32358 l 0,-67.32359 18.57295,7.99157 18.57292,7.99157 0.66383,17.30991 0.6638,17.30988 14.04065,6.25921 c 7.72235,3.44255 14.66103,6.2592 15.41929,6.2592 0.75828,0 1.69026,-4.77977 2.07111,-10.62168 l 0.69242,-10.6217 18.53621,7.84698 18.53623,7.84698 0.17279,11.71544 0.17278,11.71544 14.01341,5.85771 c 7.70739,3.22176 14.62462,5.85773 15.37163,5.85773 0.74702,0 1.6591,-7.28748 2.02687,-16.19443 l 0.66869,-16.19441 18.40979,7.87028 18.4098,7.8703 0.1632,30.5218 c 0.0898,16.787 -0.39716,30.52182 -1.08197,30.52182 -0.68483,0 -31.15044,-12.90533 -67.70134,-28.67851 -36.55091,-15.77316 -68.23604,-29.39131 -70.4114,-30.26255 -3.32776,-1.3328 -6.46793,-0.94645 -19.79544,2.43544 -8.71213,2.21073 -15.55974,4.41167 -15.21688,4.89095 0.34287,0.47928 30.81939,17.12388 67.7256,36.988 36.90623,19.86413 75.99925,40.92657 86.8734,46.80542 l 19.77119,10.68882 0,12.47932 c 2e-5,6.86363 -0.58789,12.47932 -1.30646,12.47932 -0.71856,0 -9.6156,-2.87583 -19.77118,-6.39075 -19.94957,-6.90467 -19.64885,-6.42177 4.84947,7.78733 l 16.22819,9.41239 0,12.47699 c 0,6.86232 -0.57665,12.47697 -1.28141,12.47697 z M 443.55589,596.10518 c -7.57895,-3.33486 -38.04455,-16.52663 -67.70133,-29.31498 -29.65677,-12.78838 -55.69962,-24.02353 -57.873,-24.96702 -3.44257,-1.49445 -6.14366,-1.14737 -20.96944,2.69459 l -17.01786,4.41001 0,-35.7204 c 0,-38.27826 0.98511,-42.00247 11.11028,-42.00247 3.58505,0 18.26644,5.45045 41.49578,15.40523 37.94336,16.2604 43.42209,19.82165 48.22558,31.34721 2.87945,6.90903 -1.61278,5.55616 48.95008,14.74166 l 26.36157,4.78897 0.68591,11.87043 c 0.37727,6.52872 0.28881,11.8704 -0.1965,11.8704 -0.48535,0 -12.99417,-2.22325 -27.79737,-4.94055 -14.80318,-2.71731 -26.3998,-4.5117 -25.77029,-3.98756 0.62954,0.52416 13.04421,5.66085 27.58819,11.41489 l 26.44361,10.46188 0.12247,13.99556 0.12246,13.99556 -13.77992,-6.06341 z M 335.31632,515.16559 c -7.79717,-3.15225 -14.88193,-5.73134 -15.74397,-5.73134 -0.86203,0 -1.2227,1.1819 -0.80152,2.62644 0.42119,1.44455 7.50598,5.67846 15.74397,9.40872 l 14.97817,6.78228 0,-3.67738 c 0,-3.02071 -2.53157,-4.70085 -14.17665,-9.40872 z m 117.82651,-5.88865 c -2.30615,-0.93087 -34.04622,-14.5949 -70.5335,-30.36449 -36.48728,-15.7696 -67.52324,-28.67201 -68.96882,-28.67201 -1.44558,0 -9.0374,1.66483 -16.8707,3.69962 -7.8333,2.03479 -14.87142,3.69962 -15.64027,3.69962 -0.76884,0 -1.0692,-16.6293 -0.66745,-36.95397 0.63778,-32.26696 1.22847,-37.21002 4.65709,-38.97267 2.56275,-1.31753 5.72077,-1.72571 9.09179,-1.17514 5.53596,0.90415 64.31004,25.9255 73.55799,31.31517 6.09527,3.55233 11.81346,10.70226 13.93404,17.4229 l 1.36188,4.31622 37.13547,6.60951 37.13546,6.60952 0,11.58023 c 0,6.36915 -0.89727,11.58026 -1.99395,11.58026 -1.09666,0 -14.3074,-2.22418 -29.35721,-4.94263 -15.0498,-2.71845 -25.6875,-4.24454 -23.63929,-3.39131 2.0482,0.85324 15.25895,6.16597 29.35721,11.80608 l 25.63324,10.25477 0,13.63542 c 0,12.80776 -0.25451,13.53268 -4.19298,11.9429 z m -117.9355,-85.24208 c -7.70739,-3.22174 -14.65592,-5.85772 -15.44118,-5.85772 -0.78527,0 -1.42777,1.30049 -1.42777,2.88996 0,1.94787 3.71087,4.46399 11.38342,7.71841 21.09177,8.94635 19.78831,8.63772 19.63505,4.64938 -0.10712,-2.79021 -3.11142,-4.78601 -14.14952,-9.40003 z m 119.34143,-9.24652 c -3.15154,4.4406 -11.9588,5.58816 -20.59637,2.68365 -3.61511,-1.21565 -32.10234,-13.23662 -63.30496,-26.71329 l -56.73204,-24.50302 -16.96056,4.39515 -16.96057,4.39517 0,-25.35786 0,-25.35786 65.90084,28.46345 c 36.24545,15.6549 67.51987,28.78317 69.49871,29.17391 2.48423,0.49056 3.59787,-0.0784 3.59787,-1.83804 0,-1.82728 -19.63182,-11.02561 -69.37178,-32.50355 L 280.24807,317.671 280.12131,304.41406 c -0.0698,-7.29132 0.45339,-13.25694 1.16263,-13.25694 1.82083,0 131.41672,55.97347 146.92518,63.45812 16.09381,7.76716 23.25829,14.08296 26.54541,23.40095 3.18609,9.03154 3.05665,32.17551 -0.20562,36.77215 z m -1.59051,-75.77465 c -2.40767,-0.88626 -10.97382,-4.38612 -19.03593,-7.77744 l -14.65839,-6.16602 -0.13612,-16.21794 -0.13613,-16.21793 -14.10533,-6.28804 c -7.75792,-3.45843 -14.76771,-6.28804 -15.5773,-6.28804 -0.80955,0 -1.47196,4.31605 -1.47196,9.59123 0,10.712 -3.75926,15.07285 -12.9935,15.07285 -6.12926,0 -9.94956,-1.375 -40.23074,-14.48002 l -20.8714,-9.03268 -16.8736,4.37263 -16.87359,4.37262 0,-40.71123 c 0,-22.39119 0.57947,-40.71124 1.28775,-40.71124 0.70826,0 9.33568,3.45601 19.17205,7.68005 l 17.88432,7.68003 0,16.14079 0,16.14078 14.97817,6.29367 14.97817,6.29367 0.58592,-8.22512 c 0.8679,-12.18382 2.64716,-16.05457 8.06568,-17.54682 5.97616,-1.64581 9.62908,-0.51147 39.27856,12.19707 30.87123,13.23223 46.47143,21.15216 51.49693,26.14404 7.02333,6.97636 9.614,17.51342 9.614,39.10322 0,19.31855 -0.18932,20.12167 -4.37756,18.57987 z m -67.27454,-110.74729 -71.81128,-30.94856 -16.93908,4.3896 -16.93909,4.38959 0,-25.48732 c 0,-24.14276 0.22119,-25.39158 4.19389,-23.67274 2.30663,0.99801 17.94386,7.77529 34.74936,15.06061 29.14405,12.63416 30.55546,13.08398 30.55546,9.73817 0,-3.01443 -4.88213,-5.58305 -34.70805,-18.26078 l -34.70811,-14.75294 -0.0413,-13.98316 -0.0413,-13.98318 6.63823,2.88434 c 3.65101,1.58638 43.55285,18.88994 88.67077,38.45236 l 82.03243,35.56801 0,13.60284 c 0,12.77529 -0.25512,13.50027 -4.19388,11.91671 -2.30664,-0.92737 -16.59582,-6.99478 -31.75372,-13.48313 -34.32933,-14.69469 -34.1289,-14.63111 -33.13577,-10.51048 0.5905,2.45004 9.02884,6.80704 34.33401,17.72783 l 33.55111,14.47944 0.67872,13.91066 0.67871,13.9107 -71.81127,-30.94857 z"
       id="path3009"
       inkscape:connector-curvature="0" />
  </g>
</svg>
